<svg xmlns="http://www.w3.org/2000/svg" width="19.432" height="18.432" viewBox="0 0 19.432 18.432">
  <g id="Group_308" data-name="Group 308" transform="translate(-42.568 -550.784)">
    <path id="magic-wand" d="M13.886,6.983a2.349,2.349,0,0,0-.693-1.667,2.418,2.418,0,0,0-3.339,0L.711,14.461A2.361,2.361,0,0,0,4.047,17.8l9.145-9.145a2.348,2.348,0,0,0,.693-1.67ZM2.958,16.71a.837.837,0,0,1-1.156,0,.818.818,0,0,1,0-1.156L7.788,9.567l1.16,1.16ZM12.1,7.563,10.034,9.634,8.878,8.475,10.95,6.4A.819.819,0,1,1,12.105,7.56Z" transform="translate(42.492 550.784)" fill="#fff"/>
    <path id="magic-wand-2" data-name="magic-wand" d="M17.844,13.209l-1.194.341-.341,1.194a.918.918,0,0,1-1.764,0L14.2,13.55l-1.194-.341a.918.918,0,0,1,0-1.764L14.2,11.1l.341-1.194a.918.918,0,0,1,1.764,0l.341,1.194,1.194.341a.918.918,0,0,1,0,1.764Z" transform="translate(43.492 550.755)" fill="#fff"/>
    <path id="magic-wand-3" data-name="magic-wand" d="M13.7,1.926l1.045-.3.3-1.046a.8.8,0,0,1,1.541,0l.3,1.045,1.045.3a.8.8,0,0,1,0,1.541l-1.045.3-.3,1.047a.8.8,0,0,1-1.541,0l-.3-1.044-1.046-.3a.8.8,0,0,1,0-1.541Z" transform="translate(42.492 550.784)" fill="#fff"/>
    <path id="magic-wand-4" data-name="magic-wand" d="M3.764,2.2l1.194-.341L5.3.665a.918.918,0,0,1,1.764,0L7.4,1.859,8.6,2.2a.918.918,0,0,1,0,1.764L7.4,4.3,7.063,5.5A.918.918,0,0,1,5.3,5.5L4.959,4.3,3.764,3.964a.918.918,0,0,1,0-1.764Z" transform="translate(41.469 550.784)" fill="#fff"/>
  </g>
</svg>
