<svg xmlns="http://www.w3.org/2000/svg" width="18.969" height="19" viewBox="0 0 18.969 19">
  <path id="bell-ring" d="M16.514,12.137l-2.986,4.873a4.144,4.144,0,0,1-3.064,1.961,4.208,4.208,0,0,1-.5.029,4.126,4.126,0,0,1-2.375-.756,3.753,3.753,0,0,1-5.3-5.2L1.256,12.006a4.167,4.167,0,0,1,.756-6.492L6.577,2.692a7.013,7.013,0,0,1,8.175.436l1.313-1.313a.792.792,0,1,1,1.119,1.119L15.874,4.246a7.086,7.086,0,0,1,.64,7.89Zm-10.128,5L3.441,14.192a2.154,2.154,0,0,0,.367,2.584A2.238,2.238,0,0,0,6.386,17.137ZM14.24,4.787a5.452,5.452,0,0,0-6.822-.75L2.845,6.86a2.585,2.585,0,0,0-.469,4.026l5.771,5.772a2.585,2.585,0,0,0,4.032-.475l2.973-4.849a5.492,5.492,0,0,0-.912-6.552ZM15.252,19a.792.792,0,0,1-.468-1.431,6.834,6.834,0,0,0,2.624-4.28.792.792,0,1,1,1.546.34,8.471,8.471,0,0,1-3.236,5.219.792.792,0,0,1-.466.152ZM.793,4.543A.792.792,0,0,1,.159,3.281,8.464,8.464,0,0,1,5.474.016.792.792,0,0,1,5.79,1.567,6.837,6.837,0,0,0,1.426,4.223a.792.792,0,0,1-.633.321Z" transform="translate(-0.004 0)" fill="#fff"/>
</svg>
