<svg xmlns="http://www.w3.org/2000/svg" width="16.169" height="19.403" viewBox="0 0 16.169 19.403">
  <path id="document" d="M14.127,11.319a.808.808,0,0,1-.808.808H6.851a.808.808,0,0,1,0-1.617h6.468A.808.808,0,0,1,14.127,11.319Zm-3.234,2.425H6.851a.808.808,0,0,0,0,1.617h4.042a.808.808,0,1,0,0-1.617Zm7.276-5.267v6.884A4.047,4.047,0,0,1,14.127,19.4H6.042A4.047,4.047,0,0,1,2,15.361V4.042A4.047,4.047,0,0,1,6.042,0h3.65a5.625,5.625,0,0,1,4,1.657l2.817,2.818A5.62,5.62,0,0,1,18.169,8.477ZM12.551,2.8a4.05,4.05,0,0,0-.85-.631V5.659a.808.808,0,0,0,.808.808H16a4.029,4.029,0,0,0-.631-.849Zm4,5.676c0-.133-.026-.261-.038-.392h-4a2.425,2.425,0,0,1-2.425-2.425v-4c-.131-.012-.26-.038-.392-.038H6.042A2.425,2.425,0,0,0,3.617,4.042V15.361a2.425,2.425,0,0,0,2.425,2.425h8.085a2.425,2.425,0,0,0,2.425-2.425Z" transform="translate(-2 0)" fill="#0080ff"/>
</svg>
