<svg xmlns="http://www.w3.org/2000/svg" width="18.399" height="18.388" viewBox="0 0 18.399 18.388">
  <path id="home" d="M17.725,6.957,11.91,1.142a3.839,3.839,0,0,0-5.422,0L.674,6.957A2.283,2.283,0,0,0,0,8.583v7.526a2.3,2.3,0,0,0,2.3,2.3H16.1a2.3,2.3,0,0,0,2.3-2.3V8.583A2.283,2.283,0,0,0,17.725,6.957ZM11.5,16.876H6.9V13.86a2.3,2.3,0,0,1,4.6,0Zm5.366-.767a.767.767,0,0,1-.767.767H13.033V13.86a3.833,3.833,0,1,0-7.666,0v3.016H2.3a.767.767,0,0,1-.767-.767V8.583a.773.773,0,0,1,.225-.542L7.573,2.228a2.306,2.306,0,0,1,3.254,0l5.815,5.816a.773.773,0,0,1,.225.54Z" transform="translate(0 -0.021)" fill="#fff"/>
</svg>
