<svg xmlns="http://www.w3.org/2000/svg" width="13.485" height="16.075" viewBox="0 0 13.485 16.075">
  <g id="marker" transform="translate(-1.935 -0.021)">
    <path id="Path_132" data-name="Path 132" d="M8.676.021A6.749,6.749,0,0,0,1.935,6.763c0,3.532,5.469,8.258,6.095,8.785l.648.547.648-.547c.624-.528,6.095-5.253,6.095-8.785A6.749,6.749,0,0,0,8.676.021Zm0,13.424c-2.053-1.87-4.733-4.908-4.733-6.682a4.733,4.733,0,1,1,9.467,0C13.41,8.534,10.729,11.573,8.676,13.445Z" fill="#0080ff"/>
    <circle id="Ellipse_43" data-name="Ellipse 43" cx="2.007" cy="2.007" r="2.007" transform="translate(6.669 4.699)" fill="#0080ff"/>
  </g>
</svg>
