<svg width="22" height="23" viewBox="0 0 22 23" fill="none" xmlns="http://www.w3.org/2000/svg">
  <path id="Path_124" d="M15.6155 12.7778H11.6767C11.2346 12.7778 10.8107 12.6022 10.4981 12.2896C10.1856 11.9771 10.01 11.5531 10.01 11.1111V7.15667C10.0111 6.77228 9.9238 6.39279 9.75483 6.04754C9.58587 5.70228 9.33976 5.40051 9.03555 5.16556C8.74712 4.93754 8.41015 4.77888 8.05065 4.70182C7.69115 4.62475 7.31875 4.63135 6.96221 4.72111C5.3868 5.11212 3.94348 5.91445 2.77977 7.04608C1.61606 8.17771 0.773704 9.59805 0.338815 11.1619C-0.0960744 12.7258 -0.107903 14.3771 0.304539 15.947C0.716981 17.5169 1.5389 18.9492 2.68628 20.0974C3.83366 21.2456 5.26534 22.0685 6.83499 22.482C8.40463 22.8956 10.0559 22.8849 11.6201 22.4511C13.1843 22.0173 14.6052 21.176 15.7377 20.013C16.8701 18.8501 17.6734 17.4074 18.0655 15.8322C18.1555 15.4752 18.1622 15.1022 18.0851 14.7421C18.0081 14.3821 17.8493 14.0445 17.6211 13.7556C17.3832 13.4521 17.0797 13.2064 16.7333 13.0368C16.387 12.8673 16.0067 12.7784 15.6211 12.7767L15.6155 12.7778ZM16.4411 15.4256C16.1218 16.7145 15.4658 17.8956 14.5401 18.8478C13.6145 19.8 12.4526 20.4892 11.1731 20.8449C9.8937 21.2005 8.54274 21.2099 7.25849 20.8721C5.97423 20.5342 4.80279 19.8613 3.86401 18.922C2.92524 17.9828 2.25284 16.811 1.91562 15.5266C1.5784 14.2422 1.58846 12.8912 1.94477 11.612C2.30109 10.3327 2.99086 9.1711 3.94352 8.24595C4.89617 7.3208 6.07751 6.66535 7.36666 6.34667C7.47694 6.31899 7.59218 6.31754 7.70313 6.34243C7.81408 6.36732 7.91765 6.41786 8.00554 6.49C8.10905 6.56913 8.19296 6.67102 8.25076 6.78778C8.30856 6.90454 8.33871 7.03305 8.33888 7.16333V11.1067C8.33888 11.9931 8.69101 12.8432 9.31779 13.47C9.94458 14.0968 10.7947 14.4489 11.6811 14.4489H15.6189C15.7504 14.4493 15.8801 14.4795 15.9983 14.5372C16.1164 14.5949 16.22 14.6787 16.3011 14.7822C16.3722 14.8713 16.4218 14.9756 16.4459 15.087C16.47 15.1985 16.4679 15.3139 16.44 15.4244L16.4411 15.4256Z"/>
  <path id="Path_125" d="M19.7411 8.97111C19.3563 7.55688 18.609 6.26761 17.573 5.23086C16.5371 4.19411 15.2484 3.44581 13.8344 3.06C13.6859 3.02011 13.5327 2.99994 13.3789 3C13.1583 2.99735 12.9394 3.03851 12.7349 3.12108C12.5304 3.20365 12.3443 3.326 12.1874 3.48103C12.0305 3.63605 11.906 3.82068 11.821 4.02421C11.736 4.22773 11.6922 4.4461 11.6922 4.66666V8.59889C11.6915 8.92853 11.7558 9.25509 11.8814 9.55985C12.0071 9.86462 12.1916 10.1416 12.4244 10.375C12.6573 10.6083 12.9338 10.7935 13.2383 10.9198C13.5428 11.0461 13.8692 11.1111 14.1989 11.1111H18.1422C18.4002 11.1087 18.6542 11.0469 18.8844 10.9303C19.1146 10.8138 19.3148 10.6458 19.4695 10.4393C19.6242 10.2328 19.7292 9.9934 19.7763 9.73972C19.8234 9.48605 19.8113 9.22493 19.7411 8.97666V8.97111ZM17.6533 9.43444H14.1955C13.9739 9.43444 13.7614 9.34641 13.6047 9.18971C13.448 9.03302 13.36 8.82049 13.36 8.59889L13.3533 4.67666C13.3595 4.67211 13.3668 4.66941 13.3744 4.66889H13.3967C14.5349 4.97894 15.5719 5.58206 16.4042 6.41807C17.2365 7.25408 17.835 8.29375 18.14 9.43333L17.6533 9.43444Z"/>
</svg>
