<svg xmlns="http://www.w3.org/2000/svg" width="16.017" height="17.802" viewBox="0 0 16.017 17.802">
  <g id="settings" transform="translate(-1.203)">
    <path id="Path_126" data-name="Path 126" d="M10.967,8a2.967,2.967,0,1,0,2.967,2.967A2.967,2.967,0,0,0,10.967,8Zm0,4.45a1.483,1.483,0,1,1,1.483-1.483A1.483,1.483,0,0,1,10.967,12.45Z" transform="translate(-1.755 -2.066)" fill="#fff"/>
    <path id="Path_127" data-name="Path 127" d="M16.105,10.31l-.329-.19a6.75,6.75,0,0,0,0-2.44l.329-.19A2.226,2.226,0,1,0,13.88,3.633l-.33.191a6.659,6.659,0,0,0-2.113-1.218V2.225a2.225,2.225,0,1,0-4.45,0v.381A6.659,6.659,0,0,0,4.874,3.827l-.332-.192A2.226,2.226,0,1,0,2.317,7.492l.329.19a6.75,6.75,0,0,0,0,2.44l-.329.19a2.226,2.226,0,1,0,2.225,3.857l.33-.191A6.659,6.659,0,0,0,6.986,15.2v.381a2.225,2.225,0,0,0,4.45,0V15.2a6.659,6.659,0,0,0,2.112-1.221l.332.191a2.226,2.226,0,1,0,2.225-3.857Zm-1.89-2.8a5.228,5.228,0,0,1,0,2.782.742.742,0,0,0,.344.84l.8.464a.742.742,0,1,1-.742,1.285l-.806-.466a.742.742,0,0,0-.9.122,5.18,5.18,0,0,1-2.405,1.391.742.742,0,0,0-.557.719v.929a.742.742,0,1,1-1.483,0v-.929a.742.742,0,0,0-.557-.719,5.18,5.18,0,0,1-2.4-1.394.742.742,0,0,0-.9-.122l-.8.465a.742.742,0,1,1-.742-1.285l.8-.464a.742.742,0,0,0,.344-.84,5.228,5.228,0,0,1,0-2.782.742.742,0,0,0-.345-.837l-.8-.464A.742.742,0,1,1,3.8,4.92l.806.466a.742.742,0,0,0,.9-.119A5.18,5.18,0,0,1,7.913,3.876a.742.742,0,0,0,.557-.722V2.225a.742.742,0,1,1,1.483,0v.929a.742.742,0,0,0,.557.719,5.18,5.18,0,0,1,2.405,1.394.742.742,0,0,0,.9.122l.8-.465a.742.742,0,1,1,.742,1.285l-.8.464a.742.742,0,0,0-.343.837Z" fill="#fff"/>
  </g>
</svg>
