<svg width="25" height="18" viewBox="0 0 25 18" fill="none" xmlns="http://www.w3.org/2000/svg">
<path d="M5.978 15.693H2.548C2.46684 15.693 2.38901 15.6608 2.33163 15.6034C2.27424 15.546 2.242 15.4682 2.242 15.387V2.548C2.242 2.46684 2.27424 2.38901 2.33163 2.33163C2.38901 2.27424 2.46684 2.242 2.548 2.242H5.978C6.27531 2.242 6.56044 2.1239 6.77067 1.91367C6.98089 1.70344 7.099 1.41831 7.099 1.121C7.099 0.823692 6.98089 0.538562 6.77067 0.328333C6.56044 0.118105 6.27531 0 5.978 0H2.548C1.87239 0.000529682 1.2246 0.269149 0.746877 0.746877C0.269149 1.2246 0.000529682 1.87239 0 2.548V15.388C0.0010585 16.0634 0.269879 16.7107 0.747522 17.1882C1.22516 17.6656 1.87264 17.9342 2.548 17.935H5.978C6.27531 17.935 6.56044 17.8169 6.77067 17.6067C6.98089 17.3964 7.099 17.1113 7.099 16.814C7.099 16.5167 6.98089 16.2316 6.77067 16.0213C6.56044 15.8111 6.27531 15.693 5.978 15.693Z" fill="#FBFDFF"/>
<path class="arrow" d="M16.95 6.59L14.05 3.68999C13.9458 3.58592 13.8222 3.50338 13.6862 3.44708C13.5501 3.39078 13.4044 3.36183 13.2571 3.36188C13.1099 3.36192 12.9641 3.39097 12.8281 3.44736C12.6921 3.50374 12.5686 3.58636 12.4645 3.6905C12.3604 3.79464 12.2779 3.91825 12.2216 4.05429C12.1653 4.19033 12.1363 4.33613 12.1364 4.48335C12.1364 4.63058 12.1655 4.77635 12.2218 4.91235C12.2782 5.04836 12.3608 5.17193 12.465 5.276L15.015 7.825L4.85898 7.846C4.56167 7.846 4.27654 7.9641 4.06631 8.17433C3.85609 8.38456 3.73798 8.66969 3.73798 8.967C3.73798 9.2643 3.85609 9.54944 4.06631 9.75967C4.27654 9.96989 4.56167 10.088 4.85898 10.088L15.059 10.069L12.468 12.66C12.269 12.8724 12.1605 13.1538 12.1653 13.4448C12.1701 13.7358 12.2879 14.0135 12.4938 14.2192C12.6996 14.4249 12.9774 14.5425 13.2683 14.5471C13.5593 14.5518 13.8407 14.4431 14.053 14.244L16.953 11.344C17.5837 10.7133 17.938 9.85792 17.938 8.966C17.938 8.07407 17.5837 7.21868 16.953 6.588V6.588L16.95 6.59Z" fill="#FBFDFF"/>
</svg>
