<svg xmlns="http://www.w3.org/2000/svg" width="18.194" height="18.194" viewBox="0 0 18.194 18.194">
  <path id="world" d="M9.1,0a9.1,9.1,0,1,0,9.1,9.1A9.1,9.1,0,0,0,9.1,0Zm7.581,9.1a7.534,7.534,0,0,1-1.26,4.176l-.9-.9A.379.379,0,0,1,14.4,12.1v-.729A2.274,2.274,0,0,0,12.13,9.1H9.855A.758.758,0,0,1,9.1,8.339V7.96a.379.379,0,0,1,.379-.379,1.9,1.9,0,0,0,1.9-1.9V4.928a.379.379,0,0,1,.379-.379H12.8a1.907,1.907,0,0,0,1.34-.555l.286-.286A7.557,7.557,0,0,1,16.678,9.1Zm-15.125.73,2.394,2.394a2.258,2.258,0,0,0,1.609.666H7.581a.758.758,0,0,1,.758.758v2.994A7.593,7.593,0,0,1,1.553,9.827Zm8.3,6.812V13.646a2.274,2.274,0,0,0-2.274-2.274H5.556a.758.758,0,0,1-.537-.222L1.64,7.77A7.564,7.564,0,0,1,13.233,2.752l-.17.17a.384.384,0,0,1-.268.111H11.751a1.9,1.9,0,0,0-1.9,1.9v.758a.379.379,0,0,1-.379.379,1.9,1.9,0,0,0-1.9,1.9v.379a2.274,2.274,0,0,0,2.274,2.274H12.13a.758.758,0,0,1,.758.758V12.1a1.907,1.907,0,0,0,.555,1.34l1.014,1.014a7.559,7.559,0,0,1-4.6,2.186Z" transform="translate(0 0)" fill="#fff"/>
</svg>
