<svg xmlns="http://www.w3.org/2000/svg" width="56" height="56" viewBox="0 0 56 56">
  <g id="Group_331" data-name="Group 331" transform="translate(-33.5 -25.805)">
    <path id="Path_163" data-name="Path 163" d="M0,0,8.5-3.16,21,0l4.806,12.49,8.992,11.2.694,10.148-3.061,10.5-13.683-.729L0,47.19l-10-2.849L-14.36,39V22.733L-6.055,10.86Z" transform="translate(51.5 31.805)" fill="#81c0ff"/>
    <path id="map-marker" d="M28,28a9.333,9.333,0,1,0-9.333-9.333A9.333,9.333,0,0,0,28,28Zm0-14a4.667,4.667,0,1,1-4.667,4.667A4.667,4.667,0,0,1,28,14Zm20.207,7.366-1.678-.558a18.649,18.649,0,1,0-36.995.406,11.772,11.772,0,0,0-5.945,3.033A11.541,11.541,0,0,0,0,32.667v9.508a11.7,11.7,0,0,0,8.4,11.2l6.7,2.1A11.622,11.622,0,0,0,18.571,56a11.844,11.844,0,0,0,3.162-.434l13.487-3.99a6.97,6.97,0,0,1,3.67,0l5.57,1.867A9.333,9.333,0,0,0,56,44.382V32.368a11.7,11.7,0,0,0-7.793-11ZM18.1,8.778A14.02,14.02,0,0,1,37.924,28.611l-8.29,8.062a2.315,2.315,0,0,1-3.241,0L18.1,28.646a14.093,14.093,0,0,1,0-19.868Zm33.231,35.6a4.646,4.646,0,0,1-1.783,3.668,4.594,4.594,0,0,1-3.794.922l-5.472-1.839a11.72,11.72,0,0,0-6.34-.037l-13.5,3.985a7,7,0,0,1-3.953-.068l-6.753-2.1a7.03,7.03,0,0,1-5.077-6.739V32.667A6.916,6.916,0,0,1,6.813,27.62a7.056,7.056,0,0,1,3.894-1.881,18.716,18.716,0,0,0,4.118,6.228l8.323,8.057a6.96,6.96,0,0,0,9.739,0l8.314-8.08a18.578,18.578,0,0,0,4.23-6.582l1.253.415a7.014,7.014,0,0,1,4.648,6.592Z" transform="translate(33.5 25.805)" fill="#00234a"/>
  </g>
</svg>
