<svg xmlns="http://www.w3.org/2000/svg" width="13.54" height="13.562" viewBox="0 0 13.54 13.562">
  <path id="bell-ring_1_" data-name="bell-ring (1)" d="M11.789,8.663,9.657,12.141a2.958,2.958,0,0,1-2.187,1.4,3,3,0,0,1-.355.021,2.945,2.945,0,0,1-1.7-.54,2.679,2.679,0,0,1-3.78-3.71L.9,8.57a2.974,2.974,0,0,1,.54-4.634L4.7,1.921a5.006,5.006,0,0,1,5.835.311l.937-.937a.565.565,0,1,1,.8.8l-.936.937a5.058,5.058,0,0,1,.457,5.632ZM4.559,12.232l-2.1-2.1a1.538,1.538,0,0,0,.262,1.844A1.6,1.6,0,0,0,4.559,12.232Zm5.606-8.815A3.892,3.892,0,0,0,5.3,2.882L2.032,4.9A1.845,1.845,0,0,0,1.7,7.771l4.119,4.12a1.845,1.845,0,0,0,2.878-.339L10.816,8.09a3.92,3.92,0,0,0-.651-4.676Zm.723,10.145a.565.565,0,0,1-.334-1.022,4.878,4.878,0,0,0,1.873-3.055.565.565,0,1,1,1.1.243,6.046,6.046,0,0,1-2.31,3.725.565.565,0,0,1-.333.108ZM.567,3.243a.565.565,0,0,1-.452-.9A6.042,6.042,0,0,1,3.908.011a.565.565,0,0,1,.226,1.108,4.88,4.88,0,0,0-3.115,1.9.565.565,0,0,1-.452.229Z" transform="translate(-0.004 0)" fill="#00234a"/>
</svg>
