<svg xmlns="http://www.w3.org/2000/svg" width="13.759" height="13.759" viewBox="0 0 13.759 13.759">
  <path id="briefcase" d="M10.893,2.293h-.631A2.872,2.872,0,0,0,7.453,0H6.306A2.872,2.872,0,0,0,3.5,2.293H2.867A2.87,2.87,0,0,0,0,5.16v5.733a2.87,2.87,0,0,0,2.867,2.867h8.026a2.87,2.87,0,0,0,2.867-2.867V5.16a2.87,2.87,0,0,0-2.867-2.867ZM6.306,1.147H7.453A1.72,1.72,0,0,1,9.067,2.293H4.692A1.72,1.72,0,0,1,6.306,1.147ZM2.867,3.44h8.026a1.72,1.72,0,0,1,1.72,1.72V6.88H1.147V5.16a1.72,1.72,0,0,1,1.72-1.72Zm8.026,9.173H2.867a1.72,1.72,0,0,1-1.72-1.72V8.026h5.16V8.6a.573.573,0,0,0,1.147,0V8.026h5.16v2.867A1.72,1.72,0,0,1,10.893,12.613Z" fill="#fff"/>
</svg>
