<svg id="edit" xmlns="http://www.w3.org/2000/svg" width="13.54" height="13.54" viewBox="0 0 13.54 13.54">
  <path id="Path_105" data-name="Path 105" d="M12.7.544,5.826,7.422A2.8,2.8,0,0,0,5,9.417v.758a.564.564,0,0,0,.564.564h.758a2.8,2.8,0,0,0,1.994-.826l6.878-6.878a1.763,1.763,0,0,0,0-2.49,1.8,1.8,0,0,0-2.49,0ZM14.4,2.237,7.518,9.115a1.7,1.7,0,0,1-1.2.5H6.128V9.417a1.7,1.7,0,0,1,.5-1.2L13.5,1.342a.648.648,0,0,1,.895,0,.634.634,0,0,1,0,.895Z" transform="translate(-2.179 -0.02)" fill="#00234a"/>
  <path id="Path_106" data-name="Path 106" d="M12.976,5.066a.564.564,0,0,0-.564.564V8.462H10.155a1.692,1.692,0,0,0-1.692,1.692v2.257H2.821a1.692,1.692,0,0,1-1.692-1.692v-7.9A1.692,1.692,0,0,1,2.821,1.128h5.1A.564.564,0,0,0,7.922,0h-5.1A2.824,2.824,0,0,0,0,2.821v7.9A2.824,2.824,0,0,0,2.821,13.54h6.4a2.8,2.8,0,0,0,1.995-.826l1.5-1.5A2.8,2.8,0,0,0,13.54,9.22V5.63A.564.564,0,0,0,12.976,5.066Zm-2.558,6.851a1.678,1.678,0,0,1-.826.451V10.155a.564.564,0,0,1,.564-.564h2.214a1.7,1.7,0,0,1-.451.826Z" fill="#00234a"/>
</svg>
