<svg xmlns="http://www.w3.org/2000/svg" width="48.984" height="53.437" viewBox="0 0 48.984 53.437">
  <g id="Group_332" data-name="Group 332" transform="translate(-33.5 -26.781)">
    <path id="Path_164" data-name="Path 164" d="M23.43,9.976l5.332,6.01V53.491L17.8,57.651l-26.609-2.2-2.747-32.92L-8.807,9.976Z" transform="translate(51.5 20.614)" fill="#81c0ff"/>
    <path id="address-book" d="M38.852,0H16.586A11.133,11.133,0,0,0,6.4,6.68H3.227a2.227,2.227,0,0,0,0,4.453H5.453v4.453H3.227a2.227,2.227,0,0,0,0,4.453H5.453v4.453H3.227a2.227,2.227,0,1,0,0,4.453H5.453V33.4H3.227a2.227,2.227,0,0,0,0,4.453H5.453V42.3H3.227a2.227,2.227,0,0,0,0,4.453H6.4a11.133,11.133,0,0,0,10.189,6.68H38.852A11.146,11.146,0,0,0,49.984,42.3V11.133A11.146,11.146,0,0,0,38.852,0Zm6.68,42.3a6.68,6.68,0,0,1-6.68,6.68H16.586a6.68,6.68,0,0,1-6.68-6.68V11.133a6.68,6.68,0,0,1,6.68-6.68H38.852a6.68,6.68,0,0,1,6.68,6.68ZM27.719,26.719a6.68,6.68,0,1,0-6.68-6.68A6.68,6.68,0,0,0,27.719,26.719ZM38.852,40.078a2.227,2.227,0,0,1-4.453,0,6.68,6.68,0,1,0-13.359,0,2.227,2.227,0,0,1-4.453,0C17.056,25.365,38.386,25.369,38.852,40.078Z" transform="translate(32.5 26.781)" fill="#00234a"/>
  </g>
</svg>
