<svg xmlns="http://www.w3.org/2000/svg" width="13.556" height="13.558" viewBox="0 0 13.556 13.558">
  <g id="sign-out_1_" data-name="sign-out (1)" transform="translate(-0.032)">
    <path id="Path_130" data-name="Path 130" d="M4.551,11.863H1.958a.232.232,0,0,1-.231-.231V1.926a.232.232,0,0,1,.231-.231H4.551A.847.847,0,0,0,4.551,0H1.958A1.928,1.928,0,0,0,.032,1.926v9.706a1.928,1.928,0,0,0,1.926,1.926H4.551a.847.847,0,0,0,0-1.695Z" fill="#00234a"/>
    <path id="Path_131" data-name="Path 131" d="M116.687,98.436l-2.193-2.191a.847.847,0,0,0-1.2,1.2l1.928,1.927-7.678.016a.847.847,0,1,0,0,1.695h0l7.709-.014-1.959,1.959a.847.847,0,0,0,1.2,1.2l2.191-2.191a2.542,2.542,0,0,0,0-3.6h0Z" transform="translate(-103.841 -93.455)" fill="#00234a"/>
  </g>
</svg>
