<svg xmlns="http://www.w3.org/2000/svg" width="53" height="53" viewBox="0 0 53 53">
  <g id="Group_334" data-name="Group 334" transform="translate(-681 -291)">
    <g id="Ellipse_60" data-name="Ellipse 60" transform="translate(681 291)" fill="#0080ff" stroke="#0080ff" stroke-width="3">
      <circle cx="26.5" cy="26.5" r="26.5" stroke="none"/>
      <circle cx="26.5" cy="26.5" r="25" fill="none"/>
    </g>
    <path id="book-alt" d="M17.743,1.93a3.99,3.99,0,0,0-3.277-.864l-3.055.555a3.2,3.2,0,0,0-1.821,1.03A3.2,3.2,0,0,0,7.766,1.62l-3.05-.555A4,4,0,0,0,0,5v8.626a4,4,0,0,0,3.281,3.931l5.024.914a7.193,7.193,0,0,0,2.572,0l5.028-.914a4,4,0,0,0,3.277-3.932V5A3.983,3.983,0,0,0,17.743,1.93Zm-8.952,15c-.067-.01-.134-.021-.2-.033l-5.023-.913A2.4,2.4,0,0,1,1.6,13.623V5A2.4,2.4,0,0,1,4,2.6a2.462,2.462,0,0,1,.432.039L7.481,3.2A1.6,1.6,0,0,1,8.792,4.766Zm8.792-3.3a2.4,2.4,0,0,1-1.969,2.359l-5.023.913c-.067.012-.134.023-.2.033V4.766A1.6,1.6,0,0,1,11.7,3.193l3.054-.559A2.4,2.4,0,0,1,17.584,5Z" transform="translate(697.91 307.708)" fill="#fff"/>
  </g>
</svg>
