<svg xmlns="http://www.w3.org/2000/svg" width="17.534" height="21.041" viewBox="0 0 17.534 21.041">
  <g id="trash" transform="translate(-2)">
    <path id="Path_172" data-name="Path 172" d="M18.657,3.507H15.939A4.391,4.391,0,0,0,11.644,0H9.89a4.391,4.391,0,0,0-4.3,3.507H2.877a.877.877,0,0,0,0,1.753h.877v11.4a4.389,4.389,0,0,0,4.383,4.383H13.4a4.389,4.389,0,0,0,4.383-4.383V5.26h.877a.877.877,0,0,0,0-1.753ZM9.89,1.753h1.753a2.635,2.635,0,0,1,2.48,1.753H7.41A2.635,2.635,0,0,1,9.89,1.753Zm6.137,14.9a2.63,2.63,0,0,1-2.63,2.63H8.137a2.63,2.63,0,0,1-2.63-2.63V5.26h10.52Z" transform="translate(0)" fill="red"/>
    <path id="Path_173" data-name="Path 173" d="M9.877,17.014a.877.877,0,0,0,.877-.877v-5.26a.877.877,0,0,0-1.753,0v5.26A.877.877,0,0,0,9.877,17.014Z" transform="translate(-0.863 -1.233)" fill="red"/>
    <path id="Path_174" data-name="Path 174" d="M13.877,17.014a.877.877,0,0,0,.877-.877v-5.26a.877.877,0,0,0-1.753,0v5.26A.877.877,0,0,0,13.877,17.014Z" transform="translate(-1.356 -1.233)" fill="red"/>
  </g>
</svg>
