<svg xmlns="http://www.w3.org/2000/svg" width="38" height="38" viewBox="0 0 38 38">
  <g id="Group_245" data-name="Group 245" transform="translate(-960 -2467)">
    <circle id="Ellipse_21" data-name="Ellipse 21" cx="19" cy="19" r="19" transform="translate(960 2467)" fill="#0080ff"/>
    <path id="dollar" d="M12.916,3.545a2.722,2.722,0,0,1,2.719,2.719.886.886,0,0,0,1.773,0V6.155a4.5,4.5,0,0,0-4.492-4.383H12.09V.886a.886.886,0,1,0-1.773,0v.886H9.492a4.492,4.492,0,0,0-1.418,8.752l2.244.749v6.452H9.492a2.722,2.722,0,0,1-2.719-2.719.886.886,0,0,0-1.773,0v.109A4.5,4.5,0,0,0,9.492,19.5h.826v.886a.886.886,0,0,0,1.773,0V19.5h.826a4.492,4.492,0,0,0,1.418-8.752L12.09,10V3.545Zm.86,8.881a2.719,2.719,0,0,1-.86,5.3H12.09V11.865Zm-3.458-3.02L8.634,8.844a2.719,2.719,0,0,1,.858-5.3h.826Z" transform="translate(967.796 2475.365)" fill="#fff"/>
  </g>
</svg>
