<svg id="edit" xmlns="http://www.w3.org/2000/svg" width="15.06" height="15.06" viewBox="0 0 15.06 15.06">
  <path id="Path_105" data-name="Path 105" d="M13.569.6l-7.65,7.65A3.116,3.116,0,0,0,5,10.469v.843a.627.627,0,0,0,.627.627H6.47a3.116,3.116,0,0,0,2.218-.919l7.65-7.65a1.961,1.961,0,0,0,0-2.77,2,2,0,0,0-2.77,0Zm1.882,1.882L7.8,10.133a1.9,1.9,0,0,1-1.331.551H6.255v-.215a1.9,1.9,0,0,1,.551-1.331l7.65-7.65a.72.72,0,0,1,1,0,.7.7,0,0,1,0,1Z" transform="translate(-1.863 -0.017)" fill="#fff"/>
  <path id="Path_106" data-name="Path 106" d="M14.432,5.634a.627.627,0,0,0-.627.627V9.412h-2.51a1.882,1.882,0,0,0-1.882,1.882V13.8H3.137a1.882,1.882,0,0,1-1.882-1.882V3.137A1.882,1.882,0,0,1,3.137,1.255H8.811A.627.627,0,0,0,8.811,0H3.137A3.141,3.141,0,0,0,0,3.137v8.785A3.141,3.141,0,0,0,3.137,15.06h7.118a3.117,3.117,0,0,0,2.219-.919l1.667-1.668a3.117,3.117,0,0,0,.919-2.218V6.262A.627.627,0,0,0,14.432,5.634Zm-2.846,7.62a1.867,1.867,0,0,1-.919.5V11.295a.627.627,0,0,1,.627-.627h2.463a1.892,1.892,0,0,1-.5.919Z" fill="#fff"/>
</svg>
