<svg xmlns="http://www.w3.org/2000/svg" width="38" height="38" viewBox="0 0 38 38">
  <g id="Group_244" data-name="Group 244" transform="translate(-960 -2523)">
    <circle id="Ellipse_22" data-name="Ellipse 22" cx="19" cy="19" r="19" transform="translate(960 2523)" fill="#0080ff"/>
    <path id="flame_1_" data-name="flame (1)" d="M33.4,2.564c-.7-.59-1.427-1.211-2.17-1.887a2.613,2.613,0,0,0-2.1-.657,2.518,2.518,0,0,0-1.8,1.151,18.031,18.031,0,0,0-2.206,5.708,5.421,5.421,0,0,1-.421-.721,1.77,1.77,0,0,0-2.921-.419,8.024,8.024,0,0,0-2.289,5.683,9.718,9.718,0,0,0,7.277,9.5,10.312,10.312,0,0,0,2.457.312c.027,0,.309,0,.423-.011a9.787,9.787,0,0,0,9.47-9.794C39.111,7.418,36.463,5.17,33.4,2.564ZM29.2,19.455a3.333,3.333,0,0,1-1.8-.713A3.293,3.293,0,0,1,26,16.479c-.15-1.436.735-3.313,2.543-5.433h0A.992.992,0,0,1,29.3,10.7h0a.964.964,0,0,1,.746.345c1.657,1.967,2.567,3.781,2.567,5.109a3.357,3.357,0,0,1-3.107,3.294A1.679,1.679,0,0,1,29.2,19.455Zm5.035-1.683c-.052.041-.11.073-.163.112a5.05,5.05,0,0,0,.311-1.733c0-2.237-1.624-4.633-2.985-6.25A2.744,2.744,0,0,0,29.3,8.927h0a2.759,2.759,0,0,0-2.1.967h0c-2.164,2.535-3.158,4.812-2.954,6.769a4.578,4.578,0,0,0,.344,1.319,8.049,8.049,0,0,1-3.326-6.561,6.25,6.25,0,0,1,1.844-4.5,7.229,7.229,0,0,0,.732,1.2,1.635,1.635,0,0,0,1.687.62,1.682,1.682,0,0,0,1.284-1.3,16.51,16.51,0,0,1,2.008-5.33.745.745,0,0,1,.539-.34.844.844,0,0,1,.681.213c.759.69,1.5,1.328,2.213,1.927,2.954,2.509,5.09,4.322,5.09,7.511a8,8,0,0,1-3.1,6.347Z" transform="translate(949.699 2531.386)" fill="#fff"/>
  </g>
</svg>
