<svg xmlns="http://www.w3.org/2000/svg" width="15.952" height="15.918" viewBox="0 0 15.952 15.918">
  <g id="link_1_" data-name="link (1)" transform="translate(-0.001 -0.541)">
    <path id="Path_167" data-name="Path 167" d="M6.919,181.334a2.919,2.919,0,0,1-3.951.232,2.82,2.82,0,0,1-.957-2.44,3,3,0,0,1,.9-1.782l1.912-1.913a1,1,0,0,0,0-1.41h0a1,1,0,0,0-1.41,0l-1.871,1.872a5.07,5.07,0,0,0-1.52,3.1,4.824,4.824,0,0,0,8.212,3.851l2-2a1,1,0,0,0,0-1.41h0a1,1,0,0,0-1.41,0Z" transform="translate(0 -167.791)" fill="#fff"/>
    <path id="Path_168" data-name="Path 168" d="M182.932,1.5a4.935,4.935,0,0,0-6.46.536L174.59,3.918a1,1,0,0,0,0,1.41h0a1,1,0,0,0,1.41,0l1.912-1.91a2.914,2.914,0,0,1,3.878-.279,2.831,2.831,0,0,1,.394,3.985q-.087.106-.184.2l-2,2a1,1,0,0,0,0,1.41h0a1,1,0,0,0,1.41,0l2-2a4.828,4.828,0,0,0-.478-7.238Z" transform="translate(-168.866 0)" fill="#fff"/>
    <path id="Path_169" data-name="Path 169" d="M174.586,177.118l3.1-3.1a1,1,0,0,1,1.41,0h0a1,1,0,0,1,0,1.41l-3.1,3.1a1,1,0,0,1-1.41,0h0A1,1,0,0,1,174.586,177.118Z" transform="translate(-168.862 -167.789)" fill="#fff"/>
  </g>
</svg>
