<svg xmlns="http://www.w3.org/2000/svg" width="224.785" height="53.564" viewBox="0 0 224.785 53.564">
  <g id="Layer_2" data-name="Layer 2" transform="translate(0.01)">
    <g id="Investy" transform="translate(-0.01 0)">
      <path id="Path_141" data-name="Path 141" d="M18.661,50.426h3.488l-1.934,5.479a2.841,2.841,0,0,1-2.676,1.9H2.831A2.835,2.835,0,0,1,.161,54L14.507,13.5a2.829,2.829,0,0,1,2.67-1.9H28.389l-12.4,35.039a2.886,2.886,0,0,0-.165.951,2.835,2.835,0,0,0,2.835,2.835Z" transform="translate(0.01 -4.243)" fill="#00234a"/>
      <path id="Path_142" data-name="Path 142" d="M63.323,2.835a2.86,2.86,0,0,1-.165.97L48.819,44.292a2.829,2.829,0,0,1-2.676,1.9H34.93l12.4-35.046a2.79,2.79,0,0,0,.159-.945,2.835,2.835,0,0,0-2.835-2.835H41.171L43.111,1.9A2.829,2.829,0,0,1,45.787,0h14.7a2.835,2.835,0,0,1,2.835,2.835Z" transform="translate(-12.771 0)" fill="#0080ff"/>
      <path id="Path_143" data-name="Path 143" d="M105.71,20.87h7.3v30h-7.3Z" transform="translate(-40.991 -11.076)" fill="#00234a"/>
      <path id="Path_144" data-name="Path 144" d="M138.743,39.783c0-3.249-1.8-5.045-4.565-5.045s-4.565,1.8-4.565,5.045V52.719H122.3v-23.8h7.312v3.165a8.751,8.751,0,0,1,7.221-3.424c5.509,0,9.192,3.759,9.192,10.173v13.9h-7.267Z" transform="translate(-44.957 -12.937)" fill="#00234a"/>
      <path id="Path_145" data-name="Path 145" d="M164.982,29l5.174,17.014L175.3,29h7.777l-8.431,23.816h-9.017L157.16,29Z" transform="translate(-53.292 -13.02)" fill="#00234a"/>
      <path id="Path_146" data-name="Path 146" d="M205.443,53.042c-7.008,0-12.053-4.7-12.053-12.266s4.961-12.266,12.053-12.266c6.97,0,11.885,4.619,11.885,11.885a18.809,18.809,0,0,1-.129,2.131H200.657c.259,3.12,2.184,4.565,4.565,4.565a3.888,3.888,0,0,0,3.8-2.283H216.8C215.616,49.427,211.355,53.042,205.443,53.042ZM200.7,38.47h9.131c0-2.61-2.054-4.1-4.489-4.1a4.512,4.512,0,0,0-4.642,4.1Z" transform="translate(-61.954 -12.903)" fill="#00234a"/>
      <path id="Path_147" data-name="Path 147" d="M239.208,53.042c-6.369,0-10.653-3.546-10.988-8.165h7.221c.175,1.666,1.666,2.777,3.675,2.777,1.887,0,2.869-.852,2.869-1.917,0-3.85-13-1.073-13-9.831,0-4.063,3.462-7.4,9.7-7.4s9.58,3.416,10.044,8.119h-6.749c-.213-1.621-1.453-2.694-3.508-2.694-1.7,0-2.648.685-2.648,1.841,0,3.8,12.936,1.111,13.034,10C248.864,49.922,245.188,53.042,239.208,53.042Z" transform="translate(-70.282 -12.903)" fill="#00234a"/>
      <path id="Path_148" data-name="Path 148" d="M261.869,33.205H259V27.164h2.907V21.32h7.3v5.844H274v6.087h-4.786v9.527c0,1.408.6,2.009,2.222,2.009h2.61V50.98h-3.721c-4.954,0-8.416-2.093-8.416-8.286Z" transform="translate(-77.64 -11.183)" fill="#00234a"/>
      <path id="Path_149" data-name="Path 149" d="M299.665,29h7.906l-14.96,35.146h-7.86l5.471-12.137L280.52,29h8.165l5.509,14.914Z" transform="translate(-82.785 -13.02)" fill="#00234a"/>
    </g>
  </g>
</svg>
