<svg xmlns="http://www.w3.org/2000/svg" width="19.09" height="19.089" viewBox="0 0 19.09 19.089">
  <path id="pencil" d="M18.244.934a2.9,2.9,0,0,0-4.091,0L1.17,13.918A3.966,3.966,0,0,0,0,16.74v1.639a.8.8,0,0,0,.8.8H2.437a3.964,3.964,0,0,0,2.822-1.169L18.244,5.024a2.9,2.9,0,0,0,0-4.09ZM4.13,16.88a2.412,2.412,0,0,1-1.693.7H1.6V16.74a2.379,2.379,0,0,1,.7-1.693l9.854-9.854,1.836,1.836ZM17.114,3.9l-2,2L13.277,4.064l2-2A1.3,1.3,0,0,1,17.111,3.9Z" transform="translate(0 -0.088)" fill="#00234a"/>
</svg>
