<svg xmlns="http://www.w3.org/2000/svg" width="20.053" height="20.082" viewBox="0 0 20.053 20.082">
  <g id="phone-call" transform="translate(-0.344)">
    <g id="Group_48" data-name="Group 48" transform="translate(0.344 0)">
      <path id="Path_60" data-name="Path 60" d="M16.2,38.684a1.975,1.975,0,0,0-1.433-.657,2.042,2.042,0,0,0-1.45.653l-1.339,1.335c-.11-.059-.22-.114-.326-.17-.153-.076-.3-.148-.42-.225a14.557,14.557,0,0,1-3.488-3.179A8.588,8.588,0,0,1,6.6,34.637c.348-.318.67-.648.983-.966.119-.119.237-.242.356-.36a1.945,1.945,0,0,0,0-2.933L6.783,29.22c-.131-.131-.267-.267-.394-.4-.254-.263-.521-.534-.8-.788a2.006,2.006,0,0,0-1.42-.623,2.076,2.076,0,0,0-1.441.623l-.008.008L1.282,29.491a3.1,3.1,0,0,0-.92,1.971A7.43,7.43,0,0,0,.9,34.607a18.249,18.249,0,0,0,3.242,5.408,19.946,19.946,0,0,0,6.642,5.2,10.348,10.348,0,0,0,3.73,1.1c.089,0,.182.008.267.008a3.194,3.194,0,0,0,2.446-1.051c0-.008.013-.013.017-.021a9.635,9.635,0,0,1,.742-.767c.182-.174.369-.356.551-.547a2.114,2.114,0,0,0,.64-1.466,2.037,2.037,0,0,0-.653-1.454Zm1.517,4.463s0,0,0,0c-.165.178-.335.339-.517.517a11.144,11.144,0,0,0-.818.848,2.043,2.043,0,0,1-1.594.674c-.064,0-.131,0-.195,0a9.193,9.193,0,0,1-3.306-.992,18.827,18.827,0,0,1-6.256-4.9,17.207,17.207,0,0,1-3.052-5.082,6.052,6.052,0,0,1-.475-2.653A1.946,1.946,0,0,1,2.091,30.3l1.445-1.445a.963.963,0,0,1,.644-.3.907.907,0,0,1,.619.3l.013.013c.259.242.5.492.763.759.131.136.267.271.4.411l1.157,1.157a.809.809,0,0,1,0,1.314c-.123.123-.242.246-.365.365-.356.365-.7.7-1.064,1.034-.008.008-.017.013-.021.021a.864.864,0,0,0-.22.962l.013.038a9.29,9.29,0,0,0,1.369,2.234l0,0a15.556,15.556,0,0,0,3.764,3.425,5.788,5.788,0,0,0,.521.284c.153.076.3.148.42.225.017.008.034.021.051.03a.919.919,0,0,0,.42.106.906.906,0,0,0,.644-.292l1.45-1.45a.959.959,0,0,1,.64-.318.863.863,0,0,1,.61.309l.008.008,2.335,2.335A.838.838,0,0,1,17.718,43.147Z" transform="translate(-0.344 -26.244)" fill="#0080ff"/>
      <path id="Path_61" data-name="Path 61" d="M245.415,87.06a5.455,5.455,0,0,1,4.442,4.442.569.569,0,0,0,.564.475.753.753,0,0,0,.1-.008.573.573,0,0,0,.47-.661,6.6,6.6,0,0,0-5.374-5.374.575.575,0,0,0-.661.466A.566.566,0,0,0,245.415,87.06Z" transform="translate(-234.577 -82.283)" fill="#0080ff"/>
      <path id="Path_62" data-name="Path 62" d="M258.29,8.859a10.861,10.861,0,0,0-8.85-8.85.571.571,0,1,0-.186,1.127,9.7,9.7,0,0,1,7.909,7.909.569.569,0,0,0,.564.475.756.756,0,0,0,.1-.008A.562.562,0,0,0,258.29,8.859Z" transform="translate(-238.246 0)" fill="#0080ff"/>
    </g>
  </g>
</svg>
