<svg xmlns="http://www.w3.org/2000/svg" width="15.063" height="21.423" viewBox="0 0 15.063 21.423">
  <g id="placeholder" transform="translate(-76)">
    <g id="Group_45" data-name="Group 45" transform="translate(76)">
      <g id="Group_44" data-name="Group 44">
        <path id="Path_58" data-name="Path 58" d="M83.532,0a7.533,7.533,0,0,0-6.407,11.492L83.1,21.127a.628.628,0,0,0,.533.3h0a.627.627,0,0,0,.533-.305L90,11.39A7.533,7.533,0,0,0,83.532,0Zm5.392,10.746-5.3,8.844-5.436-8.759a6.281,6.281,0,1,1,10.733-.085Z" transform="translate(-76)" fill="#0080ff"/>
      </g>
    </g>
    <g id="Group_47" data-name="Group 47" transform="translate(79.766 3.766)">
      <g id="Group_46" data-name="Group 46">
        <path id="Path_59" data-name="Path 59" d="M169.766,90a3.766,3.766,0,1,0,3.766,3.766A3.77,3.77,0,0,0,169.766,90Zm0,6.285a2.519,2.519,0,1,1,2.515-2.519A2.521,2.521,0,0,1,169.766,96.285Z" transform="translate(-166 -90)" fill="#0080ff"/>
      </g>
    </g>
  </g>
</svg>
