<svg id="portrait" xmlns="http://www.w3.org/2000/svg" width="20.422" height="20.422" viewBox="0 0 20.422 20.422">
  <path id="Path_175" data-name="Path 175" d="M16.167,0H4.255A4.26,4.26,0,0,0,0,4.255V16.167a4.26,4.26,0,0,0,4.255,4.255H16.167a4.26,4.26,0,0,0,4.255-4.255V4.255A4.26,4.26,0,0,0,16.167,0ZM5.956,18.72v-.851a4.255,4.255,0,0,1,8.509,0v.851ZM18.72,16.167a2.553,2.553,0,0,1-2.553,2.553v-.851a5.956,5.956,0,1,0-11.913,0v.851A2.553,2.553,0,0,1,1.7,16.167V4.255A2.553,2.553,0,0,1,4.255,1.7H16.167A2.553,2.553,0,0,1,18.72,4.255Z" fill="#0080ff"/>
  <path id="Path_176" data-name="Path 176" d="M11.4,4a3.4,3.4,0,1,0,3.4,3.4A3.4,3.4,0,0,0,11.4,4Zm0,5.105a1.7,1.7,0,1,1,1.7-1.7A1.7,1.7,0,0,1,11.4,9.105Z" transform="translate(-1.193 -0.596)" fill="#0080ff"/>
</svg>
