<svg id="portrait" xmlns="http://www.w3.org/2000/svg" width="44" height="44" viewBox="0 0 44 44">
  <path id="Path_175" data-name="Path 175" d="M34.833,0H9.167A9.178,9.178,0,0,0,0,9.167V34.833A9.178,9.178,0,0,0,9.167,44H34.833A9.178,9.178,0,0,0,44,34.833V9.167A9.178,9.178,0,0,0,34.833,0Zm-22,40.333V38.5a9.167,9.167,0,0,1,18.333,0v1.833Zm27.5-5.5a5.5,5.5,0,0,1-5.5,5.5V38.5a12.833,12.833,0,1,0-25.667,0v1.833a5.5,5.5,0,0,1-5.5-5.5V9.167a5.5,5.5,0,0,1,5.5-5.5H34.833a5.5,5.5,0,0,1,5.5,5.5Z" fill="#0080ff"/>
  <path id="Path_176" data-name="Path 176" d="M15.333,4a7.333,7.333,0,1,0,7.333,7.333A7.333,7.333,0,0,0,15.333,4Zm0,11A3.667,3.667,0,1,1,19,11.333,3.667,3.667,0,0,1,15.333,15Z" transform="translate(6.667 3.333)" fill="#0080ff"/>
</svg>
