<svg xmlns="http://www.w3.org/2000/svg" width="53" height="53" viewBox="0 0 53 53">
  <g id="Group_335" data-name="Group 335" transform="translate(-944 -291)">
    <g id="Ellipse_61" data-name="Ellipse 61" transform="translate(944 291)" fill="#0080ff" stroke="#0080ff" stroke-width="3">
      <circle cx="26.5" cy="26.5" r="26.5" stroke="none"/>
      <circle cx="26.5" cy="26.5" r="25" fill="none"/>
    </g>
    <path id="graduation-cap" d="M17.616,24.253l-5.893-2.807A4.177,4.177,0,0,0,7.5,21.409L1.542,24.253c-.022.011-.046.023-.067.036a2.95,2.95,0,0,0,.067,5.159l1.644.783v3.916A4,4,0,0,0,6,37.965a12.433,12.433,0,0,0,3.581.489,12.433,12.433,0,0,0,3.581-.485,4,4,0,0,0,2.812-3.818V30.229l1.6-.764v6.592a.8.8,0,0,0,1.6,0v-9.59A2.676,2.676,0,0,0,17.616,24.253Zm-3.242,9.9A2.4,2.4,0,0,1,12.7,36.438a10.862,10.862,0,0,1-3.117.417,10.862,10.862,0,0,1-3.117-.417A2.4,2.4,0,0,1,4.784,34.15V30.992l2.651,1.263a4.213,4.213,0,0,0,2.162.591,4,4,0,0,0,2.059-.555l2.718-1.3ZM16.931,28,10.9,30.882a2.632,2.632,0,0,1-2.709-.036L2.3,28.041a1.352,1.352,0,0,1-.03-2.364l5.99-2.861a2.637,2.637,0,0,1,2.709.036l5.893,2.807a1.381,1.381,0,0,1,.71,1.191A1.359,1.359,0,0,1,16.931,28Z" transform="translate(960.921 287.845)" fill="#fff"/>
  </g>
</svg>
