<svg xmlns="http://www.w3.org/2000/svg" width="13.938" height="18.583" viewBox="0 0 13.938 18.583">
  <g id="user_1_" data-name="user (1)" transform="translate(-3)">
    <path id="Path_139" data-name="Path 139" d="M10.646,9.292A4.646,4.646,0,1,0,6,4.646a4.646,4.646,0,0,0,4.646,4.646Zm0-7.743a3.1,3.1,0,1,1-3.1,3.1,3.1,3.1,0,0,1,3.1-3.1Z" transform="translate(-0.677)" fill="#000"/>
    <path id="Path_140" data-name="Path 140" d="M9.969,14A6.977,6.977,0,0,0,3,20.969a.774.774,0,1,0,1.549,0,5.42,5.42,0,1,1,10.84,0,.774.774,0,0,0,1.549,0A6.977,6.977,0,0,0,9.969,14Z" transform="translate(0 -3.16)" fill="#000"/>
  </g>
</svg>
