<svg id="cross-circle_3_" data-name="cross-circle (3)" xmlns="http://www.w3.org/2000/svg" width="49.64" height="49.64" viewBox="0 0 49.64 49.64">
  <path id="Path_184" data-name="Path 184" d="M24.82,0A24.82,24.82,0,1,0,49.64,24.82,24.82,24.82,0,0,0,24.82,0Zm8.273,30.171a2.068,2.068,0,1,1-2.8,3.044q-.063-.058-.121-.121L24.82,27.745l-5.349,5.349a2.068,2.068,0,0,1-2.925-2.925L21.9,24.82l-5.349-5.349a2.068,2.068,0,0,1,2.925-2.925L24.82,21.9l5.351-5.349a2.068,2.068,0,0,1,3.044,2.8q-.058.063-.121.121L27.745,24.82Z" fill="#0080ff"/>
</svg>
